<svg width="30" height="31" viewBox="0 0 30 31" fill="none" xmlns="http://www.w3.org/2000/svg">
<circle opacity="0.2" cx="15" cy="15.4097" r="15" fill="black"/>
<path d="M15 17.3784C16.6506 17.3784 17.9883 16.0565 17.9883 14.4253V10.4878C17.9883 8.85654 16.6506 7.53467 15 7.53467C13.3494 7.53467 12.0117 8.85654 12.0117 10.4878V14.4253C12.0117 16.0565 13.3494 17.3784 15 17.3784ZM20.8008 14.3901C20.8008 14.3128 20.7375 14.2495 20.6602 14.2495H19.6055C19.5281 14.2495 19.4648 14.3128 19.4648 14.3901C19.4648 16.8563 17.4662 18.855 15 18.855C12.5338 18.855 10.5352 16.8563 10.5352 14.3901C10.5352 14.3128 10.4719 14.2495 10.3945 14.2495H9.33984C9.2625 14.2495 9.19922 14.3128 9.19922 14.3901C9.19922 17.3556 11.4246 19.8024 14.2969 20.1487V21.9487H11.7428C11.502 21.9487 11.3086 22.2001 11.3086 22.5112V23.144C11.3086 23.2214 11.3578 23.2847 11.4176 23.2847H18.5824C18.6422 23.2847 18.6914 23.2214 18.6914 23.144V22.5112C18.6914 22.2001 18.498 21.9487 18.2572 21.9487H15.6328V20.1575C18.5385 19.8411 20.8008 17.3802 20.8008 14.3901Z" fill="white"/>
</svg>
