<svg width="30" height="31" viewBox="0 0 30 31" fill="none" xmlns="http://www.w3.org/2000/svg">
<circle cx="15" cy="15.4097" r="15" fill="#F8452C"/>
<path d="M9.3825 18.0197L10.8825 16.8272C11.2425 16.5422 11.4525 16.1072 11.4525 15.6497V13.6997C13.7175 12.9647 16.17 12.9572 18.4425 13.6997V15.6572C18.4425 16.1147 18.6525 16.5497 19.0125 16.8347L20.505 18.0197C21.105 18.4922 21.96 18.4472 22.5 17.9072L23.415 16.9922C24.015 16.3922 24.015 15.3947 23.3775 14.8322C18.57 10.5872 11.325 10.5872 6.5175 14.8322C5.88 15.3947 5.88 16.3922 6.48 16.9922L7.395 17.9072C7.9275 18.4472 8.7825 18.4922 9.3825 18.0197V18.0197Z" fill="white"/>
</svg>
