<svg width="18" height="19" viewBox="0 0 18 19" fill="none" xmlns="http://www.w3.org/2000/svg">
<path d="M11.8125 16.1597H13.7812C14.3034 16.1597 14.8042 15.9522 15.1734 15.583C15.5426 15.2138 15.75 14.7131 15.75 14.1909V12.2222" stroke="white" stroke-width="1.125" stroke-linecap="round" stroke-linejoin="round"/>
<path d="M15.75 6.59717V4.62842C15.75 4.10627 15.5426 3.60551 15.1734 3.2363C14.8042 2.86709 14.3034 2.65967 13.7812 2.65967H11.8125" stroke="white" stroke-width="1.125" stroke-linecap="round" stroke-linejoin="round"/>
<path d="M6.1875 16.1597H4.21875C3.69661 16.1597 3.19585 15.9522 2.82663 15.583C2.45742 15.2138 2.25 14.7131 2.25 14.1909V12.2222" stroke="white" stroke-width="1.125" stroke-linecap="round" stroke-linejoin="round"/>
<path d="M2.25 6.59717V4.62842C2.25 4.10627 2.45742 3.60551 2.82663 3.2363C3.19585 2.86709 3.69661 2.65967 4.21875 2.65967H6.1875" stroke="white" stroke-width="1.125" stroke-linecap="round" stroke-linejoin="round"/>
</svg>
