<svg width="30" height="31" viewBox="0 0 30 31" fill="none" xmlns="http://www.w3.org/2000/svg">
<circle opacity="0.2" cx="15" cy="15.4097" r="15" fill="black"/>
<path d="M22.285 14.2697L20.61 13.7697C20.4942 13.3653 20.3349 12.9747 20.135 12.6047L20.955 11.0697C20.9858 11.0117 20.9971 10.9454 20.9871 10.8806C20.9772 10.8157 20.9467 10.7558 20.9 10.7097L19.705 9.50968C19.6589 9.46301 19.599 9.43246 19.5341 9.42255C19.4693 9.41264 19.403 9.42391 19.345 9.45468L17.82 10.2697C17.4463 10.06 17.0506 9.89232 16.64 9.76968L16.14 8.11468C16.1189 8.05368 16.0789 8.00098 16.0259 7.96414C15.9729 7.9273 15.9096 7.90823 15.845 7.90968H14.155C14.0901 7.90998 14.0269 7.93099 13.9748 7.96966C13.9226 8.00833 13.8842 8.06264 13.865 8.12468L13.365 9.77468C12.951 9.89666 12.5519 10.0644 12.175 10.2747L10.675 9.46468C10.6171 9.43391 10.5508 9.42264 10.4859 9.43255C10.4211 9.44246 10.3611 9.47301 10.315 9.51968L9.10002 10.7047C9.05335 10.7508 9.0228 10.8107 9.01289 10.8756C9.00298 10.9404 9.01425 11.0067 9.04502 11.0647L9.85502 12.5647C9.64504 12.94 9.47735 13.3374 9.35502 13.7497L7.70002 14.2497C7.63798 14.2688 7.58367 14.3073 7.545 14.3595C7.50633 14.4116 7.48532 14.4747 7.48502 14.5397V16.2297C7.48532 16.2946 7.50633 16.3577 7.545 16.4099C7.58367 16.4621 7.63798 16.5005 7.70002 16.5197L9.36502 17.0197C9.48869 17.4251 9.65635 17.8157 9.86502 18.1847L9.04502 19.7547C9.01425 19.8126 9.00298 19.8789 9.01289 19.9438C9.0228 20.0086 9.05335 20.0686 9.10002 20.1147L10.295 21.3097C10.3411 21.3563 10.4011 21.3869 10.4659 21.3968C10.5308 21.4067 10.5971 21.3954 10.655 21.3647L12.2 20.5397C12.5655 20.7369 12.951 20.8945 13.35 21.0097L13.85 22.6947C13.8692 22.7567 13.9076 22.811 13.9598 22.8497C14.0119 22.8884 14.0751 22.9094 14.14 22.9097H15.83C15.8949 22.9094 15.9581 22.8884 16.0102 22.8497C16.0624 22.811 16.1009 22.7567 16.12 22.6947L16.62 21.0047C17.0156 20.8889 17.3977 20.7313 17.76 20.5347L19.315 21.3647C19.373 21.3954 19.4393 21.4067 19.5041 21.3968C19.569 21.3869 19.6289 21.3563 19.675 21.3097L20.87 20.1147C20.9167 20.0686 20.9472 20.0086 20.9571 19.9438C20.9671 19.8789 20.9558 19.8126 20.925 19.7547L20.095 18.2047C20.2937 17.841 20.4529 17.4572 20.57 17.0597L22.255 16.5597C22.3171 16.5405 22.3714 16.5021 22.41 16.4499C22.4487 16.3977 22.4697 16.3346 22.47 16.2697V14.5647C22.473 14.5025 22.4568 14.4409 22.4238 14.3882C22.3907 14.3354 22.3423 14.2941 22.285 14.2697V14.2697ZM15 18.1597C14.4561 18.1597 13.9244 17.9984 13.4722 17.6962C13.02 17.394 12.6675 16.9646 12.4593 16.4621C12.2512 15.9596 12.1967 15.4066 12.3029 14.8732C12.409 14.3397 12.6709 13.8497 13.0555 13.4651C13.4401 13.0805 13.9301 12.8186 14.4635 12.7125C14.997 12.6064 15.5499 12.6609 16.0524 12.869C16.5549 13.0771 16.9844 13.4296 17.2866 13.8819C17.5887 14.3341 17.75 14.8658 17.75 15.4097C17.75 16.139 17.4603 16.8385 16.9446 17.3542C16.4288 17.8699 15.7294 18.1597 15 18.1597V18.1597Z" fill="white"/>
</svg>
