<svg width="30" height="31" viewBox="0 0 30 31" fill="none" xmlns="http://www.w3.org/2000/svg">
<circle opacity="0.2" cx="15" cy="15.4097" r="15" fill="black"/>
<path fill-rule="evenodd" clip-rule="evenodd" d="M6 9.40967C6 8.85738 6.44772 8.40967 7 8.40967H22C22.5523 8.40967 23 8.85738 23 9.40967V18.4097C23 18.962 22.5523 19.4097 22 19.4097H7C6.44772 19.4097 6 18.962 6 18.4097V9.40967ZM14.0262 10.919L11.6495 13.2957C11.3677 13.5775 11.368 14.0328 11.6501 14.315C11.9323 14.5971 12.3876 14.5974 12.6694 14.3156L13.8125 13.1725L13.8146 16.461C13.8149 16.8596 14.1378 17.1826 14.5353 17.1817C14.934 17.182 15.2565 16.8594 15.2552 16.4619L15.253 13.1644L16.4067 14.318C16.6889 14.6002 17.1441 14.6005 17.4259 14.3187C17.7077 14.0368 17.7075 13.5816 17.4253 13.2994L15.0455 10.9196C14.7633 10.6374 14.308 10.6371 14.0262 10.919ZM9.75 21.4097C9.33579 21.4097 9 21.7455 9 22.1597C9 22.5739 9.33579 22.9097 9.75 22.9097H19.25C19.6642 22.9097 20 22.5739 20 22.1597C20 21.7455 19.6642 21.4097 19.25 21.4097H9.75Z" fill="white"/>
</svg>
