<svg width="30" height="31" viewBox="0 0 30 31" fill="none" xmlns="http://www.w3.org/2000/svg">
<circle opacity="0.2" cx="15" cy="15.4097" r="15" fill="black"/>
<path fill-rule="evenodd" clip-rule="evenodd" d="M17.25 13.6464L21.4845 12.0437C21.5981 12.0007 21.7204 11.9859 21.8409 12.0006C21.9614 12.0153 22.0766 12.0591 22.1765 12.1282C22.2764 12.1972 22.358 12.2895 22.4143 12.397C22.4707 12.5046 22.5001 12.6242 22.5 12.7457V18.0774C22.5 18.1986 22.4706 18.3179 22.4143 18.4252C22.3581 18.5325 22.2767 18.6246 22.1771 18.6936C22.0775 18.7626 21.9627 18.8065 21.8425 18.8214C21.7223 18.8364 21.6002 18.8219 21.4868 18.7794L17.25 17.1909V18.4097C17.25 18.8075 17.092 19.189 16.8107 19.4703C16.5294 19.7516 16.1478 19.9097 15.75 19.9097H9C8.60218 19.9097 8.22064 19.7516 7.93934 19.4703C7.65804 19.189 7.5 18.8075 7.5 18.4097V12.4097C7.5 12.0118 7.65804 11.6303 7.93934 11.349C8.22064 11.0677 8.60218 10.9097 9 10.9097H15.75C16.1478 10.9097 16.5294 11.0677 16.8107 11.349C17.092 11.6303 17.25 12.0118 17.25 12.4097V13.6464V13.6464Z" fill="white"/>
</svg>
