<svg width="32" height="32" viewBox="0 0 32 32" fill="none" xmlns="http://www.w3.org/2000/svg">
<mask id="path-1-inside-1_1_174" fill="white">
<path d="M15.9999 32C24.8378 32 32 24.836 32 15.9996C32 7.16357 24.8379 0 15.9999 0C7.16309 0 0 7.16357 0 15.9996C0 24.836 7.16306 32 15.9999 32Z"/>
</mask>
<path d="M15.9999 33C25.3902 33 33 25.3881 33 15.9996H31C31 24.2838 24.2854 31 15.9999 31V33ZM33 15.9996C33 6.61132 25.3902 -1 15.9999 -1V1C24.2855 1 31 7.71582 31 15.9996H33ZM15.9999 -1C6.6108 -1 -1 6.61129 -1 15.9996H1C1 7.71585 7.71538 1 15.9999 1V-1ZM-1 15.9996C-1 25.3882 6.61071 33 15.9999 33V31C7.7154 31 1 24.2838 1 15.9996H-1Z" fill="#C9C7D0" mask="url(#path-1-inside-1_1_174)"/>
<path d="M12.4179 21.5999H9.92269V13.4479H12.4179V21.5999ZM11.1064 12.4281H11.0884C10.1855 12.4281 9.60004 11.8049 9.60004 11.0155C9.60004 10.2104 10.2031 9.59993 11.124 9.59993C12.0441 9.59993 12.6104 10.2088 12.6285 11.0132C12.6285 11.803 12.0442 12.4281 11.1064 12.4281ZM22.4 21.5999H19.5709V17.3813C19.5709 16.2772 19.1288 15.5237 18.1553 15.5237C17.4109 15.5237 16.9974 16.0321 16.8045 16.5225C16.7325 16.6981 16.7435 16.9431 16.7435 17.1888V21.5999H13.9407C13.9407 21.5999 13.9772 14.1272 13.9407 13.4478H16.7435V14.7272C16.9092 14.1678 17.8044 13.3694 19.2342 13.3694C21.007 13.3694 22.4 14.5423 22.4 17.0669V21.5999Z" fill="white"/>
</svg>
