<svg width="40" height="40" viewBox="0 0 40 40" fill="none" xmlns="http://www.w3.org/2000/svg">
<path fill-rule="evenodd" clip-rule="evenodd" d="M40 20C40 31.0457 31.0457 40 20 40C8.9543 40 0 31.0457 0 20C0 8.9543 8.9543 0 20 0C23.6017 0 26.981 0.952036 29.9 2.61818C30.4147 2.91199 30.9152 3.22801 31.4 3.56493C32.1377 4.07759 32.8392 4.63864 33.5 5.24348C37.4948 8.90013 40 14.1575 40 20ZM8.15177 34.8889C8.05005 35.0902 7.82191 35.9182 8.25362 35.9957C8.86134 36.1049 9.70894 34.1117 10.4874 32.2811C11.1439 30.7372 11.7512 29.3091 12.124 29.3551C12.9388 29.4557 20.3587 30.2065 20.5776 29.0532C20.6806 28.5108 18.9881 28.4005 17.2022 28.2841C15.1913 28.1531 13.062 28.0143 13.2443 27.2422C13.4209 26.4945 15.3703 26.8423 17.3316 27.1922C19.3048 27.5443 21.29 27.8984 21.4943 27.1415C21.7094 26.3446 19.7092 26.1368 17.8183 25.9404C16.1285 25.7649 14.5261 25.5984 14.6703 25.0286C14.8185 24.4429 16.4289 24.757 18.1177 25.0863C19.9101 25.4359 21.7908 25.8027 22.1054 25.1292C22.4249 24.4454 20.7957 24.1741 19.2263 23.9127C17.7938 23.6741 16.411 23.4439 16.6054 22.9157C16.8091 22.3623 18.3624 22.7899 19.9156 23.2176C21.4688 23.6452 23.0221 24.0728 23.2258 23.5194C23.4309 22.9622 21.8289 22.5835 20.3304 22.2293C18.8524 21.8799 17.475 21.5543 18.0314 21.1046C18.6081 20.6385 20.0485 21.1322 21.3661 21.5838C22.6081 22.0095 23.741 22.3978 23.9387 21.9095C24.1676 21.3444 22.6738 20.8544 21.4036 20.4377C20.4125 20.1126 19.5574 19.8322 19.7628 19.5954C20.0635 19.2488 21.2521 19.7062 22.4427 20.1644C23.6715 20.6373 24.9023 21.111 25.1609 20.7022C25.4439 20.255 23.9978 19.6836 22.7614 19.195C21.7722 18.8041 20.9171 18.4663 21.1887 18.2874C21.4634 18.1065 22.3965 18.4134 23.3684 18.7331C24.5588 19.1247 25.8075 19.5355 25.9758 19.0923C26.1455 18.6453 24.9957 18.2293 24.0269 17.8788C23.2514 17.5982 22.5919 17.3596 22.8184 17.1806C23.0443 17.0021 23.8516 17.1998 24.7244 17.4136C25.8189 17.6816 27.0165 17.9749 27.2998 17.5831C27.5713 17.2077 26.5695 16.8895 25.6519 16.5979C24.8478 16.3425 24.1083 16.1076 24.3461 15.8726C24.5833 15.6383 25.3508 15.8405 26.1545 16.0523C27.0765 16.2952 28.0463 16.5507 28.3183 16.1745C28.5809 15.8113 27.706 15.5551 26.8667 15.3094C26.0785 15.0786 25.3217 14.857 25.5683 14.5646C25.8247 14.2607 26.6491 14.4158 27.4566 14.5678C28.2529 14.7176 29.0327 14.8644 29.235 14.5646C29.4485 14.2482 28.6267 14.0976 27.8403 13.9535C27.1263 13.8227 26.4415 13.6972 26.5869 13.4579C26.7279 13.2257 27.4762 13.2935 28.2613 13.3647C29.1775 13.4477 30.1438 13.5353 30.2535 13.156C30.3582 12.7939 29.467 12.7244 28.6453 12.6602C27.8687 12.5996 27.1542 12.5438 27.4017 12.2505C27.6581 11.9465 28.4825 11.9741 29.238 11.9995C29.983 12.0244 30.6609 12.0471 30.6609 11.7474C30.6609 11.4455 30.0498 11.4455 29.4514 11.4455C28.8531 11.4455 28.2674 11.4455 28.3183 11.1437C28.3691 10.8427 29.1288 10.7918 29.8779 10.7417C30.6312 10.6912 31.3739 10.6415 31.3739 10.3388C31.3739 10.0222 30.7016 10.0653 30.0769 10.1054C29.5104 10.1417 28.9829 10.1756 29.0313 9.93631C29.0792 9.69943 29.6692 9.6187 30.2695 9.53657C30.944 9.44427 31.6315 9.3502 31.5776 9.03078C31.523 8.70707 30.9412 8.87516 30.4291 9.02314C29.9861 9.15114 29.5952 9.2641 29.6424 9.03078C29.6916 8.78762 30.2167 8.61497 30.7347 8.44468C31.2884 8.26265 31.8339 8.0833 31.7813 7.82338C31.7266 7.55321 31.29 7.71832 30.8975 7.86677C30.5591 7.99474 30.2535 8.11032 30.2535 7.924C30.2535 7.73612 30.6752 7.48246 31.1042 7.22443C31.5942 6.92974 32.0936 6.62935 31.985 6.41477C31.875 6.19745 31.4977 6.47882 31.1739 6.72035C30.898 6.92613 30.6609 7.10299 30.6609 6.91784C30.6609 6.72159 30.9758 6.50141 31.2748 6.2923C31.589 6.07259 31.8856 5.86511 31.7813 5.71045C31.674 5.55147 31.4254 5.6995 31.2291 5.81645C31.0526 5.92155 30.9183 6.00156 30.9665 5.81107C30.9902 5.71743 31.0414 5.56932 31.101 5.39716C31.2975 4.82938 31.5846 4 31.272 4C31.0334 4 30.9345 4.55241 30.8526 5.01004C30.7947 5.33364 30.7453 5.60985 30.6609 5.60985C30.5771 5.60985 30.5623 5.45663 30.5454 5.28324C30.5214 5.03512 30.4933 4.7457 30.2535 4.80492C30.0327 4.85946 30.141 5.38699 30.2379 5.85873C30.3198 6.25728 30.3934 6.616 30.2535 6.616C30.1031 6.616 30.0514 6.34775 30.0012 6.08739C29.9495 5.81889 29.8994 5.55877 29.7442 5.60985C29.5928 5.65972 29.6415 6.10521 29.692 6.56633C29.7434 7.03541 29.7965 7.52068 29.6424 7.62215C29.4988 7.71671 29.4677 7.45581 29.4328 7.16306C29.3933 6.83281 29.3491 6.46205 29.1331 6.51539C28.9317 6.56515 29.0291 7.08249 29.1298 7.6171C29.2327 8.16345 29.3391 8.72783 29.1331 8.82954C28.9402 8.92483 28.8843 8.45609 28.8249 7.95749C28.7588 7.40315 28.6883 6.8119 28.4202 6.91784C28.1656 7.01846 28.3183 7.62215 28.4711 8.22584C28.6239 8.82954 28.7767 9.43323 28.522 9.53385C28.2673 9.6345 28.2191 9.20652 28.1694 8.76614C28.1199 8.32611 28.0689 7.87371 27.8091 7.924C27.5503 7.9741 27.6755 8.62297 27.8036 9.2867C27.9327 9.95589 28.0647 10.6402 27.8091 10.7412C27.5644 10.8379 27.5078 10.3539 27.4473 9.83605C27.3818 9.27613 27.3117 8.67665 26.9943 8.72892C26.6752 8.78146 26.8004 9.60214 26.9204 10.3888C27.0303 11.1086 27.1358 11.7999 26.8924 11.848C26.6491 11.8961 26.5685 11.3927 26.4841 10.865C26.3918 10.2883 26.2948 9.68254 25.9758 9.73508C25.6726 9.78499 25.8206 10.5283 25.9722 11.2892C26.1261 12.0622 26.2837 12.8534 25.9758 12.9548C25.6815 13.0517 25.5998 12.379 25.5146 11.6777C25.4228 10.9223 25.327 10.1338 24.9572 10.2382C24.5876 10.3425 24.7381 11.3391 24.8836 12.3029C25.0188 13.1983 25.1497 14.0652 24.8554 14.1622C24.5801 14.2528 24.5322 13.6084 24.4788 12.8912C24.4137 12.0163 24.3406 11.0331 23.8369 11.1437C23.3531 11.2499 23.5218 12.3932 23.6843 13.4936C23.8296 14.478 23.9698 15.4282 23.6332 15.5708C23.306 15.7093 23.2148 14.9791 23.1134 14.1677C22.9938 13.211 22.8602 12.1416 22.3091 12.2505C21.7726 12.3565 21.9991 13.5512 22.2146 14.6877C22.4082 15.7088 22.5929 16.6829 22.2073 16.7782C21.8099 16.8763 21.679 15.9456 21.5429 14.9779C21.3998 13.961 21.251 12.9032 20.7813 12.9548C20.3098 13.0065 20.5121 14.2566 20.7088 15.472C20.8945 16.6191 21.0751 17.7355 20.6795 17.7843C20.2946 17.8318 20.2051 16.8913 20.1105 15.8963C20.0049 14.7851 19.8928 13.606 19.3554 13.6591C18.8164 13.7123 18.9906 15.2312 19.1532 16.6494C19.2979 17.9107 19.4334 19.0923 19.0499 19.0923C18.6836 19.0923 18.5849 18.2385 18.4762 17.2985C18.343 16.1472 18.1949 14.8665 17.5221 14.8665C16.8595 14.8665 17.1548 16.4339 17.4343 17.9172C17.6704 19.1699 17.8952 20.3627 17.5221 20.5009C17.2052 20.6183 17.0097 19.6948 16.7885 18.6497C16.5028 17.2995 16.174 15.7464 15.4851 15.9732C15.0359 16.1211 15.3432 17.8144 15.6384 19.4409C15.9182 20.9826 16.1871 22.4643 15.7906 22.5132C15.4518 22.5551 15.2731 21.5268 15.0663 20.3367C14.8033 18.8231 14.4948 17.0478 13.7536 16.8788C13.0315 16.7142 13.4605 18.7937 13.8677 20.7677C14.2071 22.4135 14.5315 23.9858 14.161 24.1231C13.8872 24.2245 13.5865 23.1145 13.2442 21.851C12.787 20.1629 12.2555 18.2009 11.6147 18.4886C11.1776 18.6849 11.5843 20.6448 11.9862 22.5818C12.3886 24.5209 12.7863 26.4372 12.3277 26.5379C11.9031 26.6311 11.5221 25.2129 11.1141 23.6936C10.6412 21.9332 10.1319 20.0371 9.47585 20.1991C8.73263 20.3826 9.53349 23.3938 10.1838 25.8389C10.6029 27.4147 10.9595 28.7555 10.7999 28.9526C10.4858 29.3407 9.14099 32.5428 8.49589 34.0789C8.30474 34.5341 8.17502 34.8429 8.15177 34.8889Z" fill="url(#paint0_linear_528_80)"/>
<defs>
<linearGradient id="paint0_linear_528_80" x1="31.4" y1="4.2" x2="8.1" y2="35.6" gradientUnits="userSpaceOnUse">
<stop stop-color="#5AB11D"/>
<stop offset="1" stop-color="#1AA48F"/>
</linearGradient>
</defs>
</svg>
